<svg width="40" height="40" viewBox="0 0 40 40" fill="none" xmlns="http://www.w3.org/2000/svg">
<g clip-path="url(#clip0_601_6443)">
<rect width="40" height="40" rx="8" fill="#2A4AC8"/>
<path d="M25.4336 25.0742C25.3789 25.0273 25.3086 25 25.2344 25H23.0977C23.0039 25 22.918 25.043 22.8594 25.1133L20 28.543L17.1445 25.1133C17.0859 25.043 16.9961 25 16.9062 25H14.7656C14.6914 25 14.6211 25.0273 14.5664 25.0742C14.4336 25.1836 14.4141 25.3828 14.5273 25.5156L18.5234 30.3125L14.5234 35.1133C14.4141 35.2461 14.4297 35.4414 14.5625 35.5547C14.6172 35.6016 14.6875 35.6289 14.7617 35.6289H16.8984C16.9922 35.6289 17.0781 35.5859 17.1367 35.5156L19.9922 32.0859L22.8477 35.5156C22.9063 35.5859 22.9961 35.6289 23.0859 35.6289H25.2344C25.3086 35.6289 25.3789 35.6016 25.4336 35.5547C25.5664 35.4453 25.5859 35.2461 25.4727 35.1133L21.4766 30.3125L25.4766 25.5117C25.5859 25.3789 25.5664 25.1836 25.4336 25.0742ZM18.4375 21.25H21.5625C21.7344 21.25 21.875 21.1094 21.875 20.9375V4.6875C21.875 4.51562 21.7344 4.375 21.5625 4.375H18.4375C18.2656 4.375 18.125 4.51562 18.125 4.6875V20.9375C18.125 21.1094 18.2656 21.25 18.4375 21.25ZM13.6719 15.0781H8.1875C7.63522 15.0781 7.1875 14.6304 7.1875 14.0781V5.3125C7.1875 5.18359 7.08203 5.07812 6.95312 5.07812H4.60938C4.48047 5.07812 4.375 5.18359 4.375 5.3125V16.7188C4.375 17.3672 4.89844 17.8906 5.54688 17.8906H13.6719C13.8008 17.8906 13.9062 17.7852 13.9062 17.6562V15.3125C13.9062 15.1836 13.8008 15.0781 13.6719 15.0781ZM35.3906 5.07812H33.0469C32.918 5.07812 32.8125 5.18359 32.8125 5.3125V14.0781C32.8125 14.6304 32.3648 15.0781 31.8125 15.0781H26.3281C26.1992 15.0781 26.0938 15.1836 26.0938 15.3125V17.6562C26.0938 17.7852 26.1992 17.8906 26.3281 17.8906H34.4531C35.1016 17.8906 35.625 17.3672 35.625 16.7188V5.3125C35.625 5.18359 35.5195 5.07812 35.3906 5.07812Z" fill="#F9FAFB"/>
</g>
<defs>
<clipPath id="clip0_601_6443">
<rect width="40" height="40" fill="white"/>
</clipPath>
</defs>
</svg>
