<svg width="40" height="40" viewBox="0 0 40 40" fill="none" xmlns="http://www.w3.org/2000/svg">
<rect width="40" height="40" rx="8" fill="#2A4AC8"/>
<path d="M19.9915 6.00064C20.4455 6.00064 20.8925 6.03043 21.3083 6.10053C21.7179 6.15481 22.1219 6.24511 22.5159 6.37041C22.911 6.49133 23.2974 6.64205 23.6837 6.83131C24.0597 7.01182 24.4461 7.23263 24.8325 7.47272C25.4857 7.89332 26.1285 8.2333 26.7834 8.50493C28.0727 9.02688 29.4361 9.33746 30.8221 9.42498C31.5255 9.4758 32.248 9.5056 33 9.5056V16.5155C33 17.8474 32.8319 19.1092 32.4958 20.3114C32.1729 21.4964 31.7141 22.6392 31.1288 23.7165C30.5459 24.7922 29.8562 25.8051 29.0704 26.7395C28.2726 27.6951 27.4087 28.5923 26.4854 29.4243C25.5498 30.2587 24.5644 31.0342 23.5347 31.7463C22.5056 32.4683 21.466 33.1395 20.4264 33.7494L20.0106 34L19.5948 33.7494C18.5261 33.1236 17.4822 32.4554 16.4657 31.7463C15.4302 31.0422 14.4443 30.2663 13.515 29.4243C12.5922 28.5923 11.7289 27.6951 10.9317 26.7395C10.148 25.8011 9.45525 24.7888 8.86295 23.7165C8.2876 22.6344 7.82927 21.4928 7.49591 20.3114C7.15765 19.0754 6.99088 17.7979 7.00038 16.5155V9.5056C7.75407 9.5056 8.47657 9.4758 9.18001 9.42498C9.87247 9.37633 10.5604 9.27617 11.2384 9.12531C11.902 8.9746 12.5655 8.77481 13.2187 8.50493C13.8965 8.22824 14.5464 7.88609 15.1593 7.48324C15.9216 6.98203 16.6944 6.61225 17.4567 6.36866C18.2777 6.11408 19.1329 5.98993 19.9915 6.00064V6.00064ZM31.257 11.2283C29.9455 11.1639 28.6461 10.9421 27.3863 10.5676C26.1332 10.1895 24.9396 9.63308 23.8414 8.91501C23.2718 8.53682 22.6531 8.24017 22.0031 8.03351C21.3538 7.83502 20.6785 7.73694 20.0002 7.7426C19.3168 7.73813 18.6366 7.83617 17.9817 8.03351C17.3307 8.23346 16.7129 8.53056 16.1486 8.91501C15.0485 9.63699 13.8518 10.1959 12.595 10.5746C11.3666 10.9356 10.081 11.1564 8.733 11.237V16.5243C8.733 17.6862 8.882 18.7972 9.18001 19.868C9.48361 20.9295 9.90197 21.9538 10.4275 22.9226C10.9593 23.9014 11.5862 24.8243 12.2987 25.6775C13.0212 26.5379 13.7922 27.3388 14.6239 28.0994C15.4555 28.8617 16.327 29.5627 17.2384 30.2129C18.1584 30.8648 19.0802 31.4554 20.0002 31.9952C20.9422 31.4404 21.8608 30.8458 22.7533 30.2129C23.6707 29.5648 24.5468 28.8589 25.3765 28.0994C26.2082 27.3388 26.9809 26.5379 27.7034 25.6775C28.416 24.8243 29.0429 23.9015 29.5746 22.9226C30.0978 21.9551 30.51 20.9302 30.803 19.868C31.1101 18.7808 31.2629 17.655 31.257 16.5243V11.2283V11.2283Z" fill="#F9FAFB"/>
<path fill-rule="evenodd" clip-rule="evenodd" d="M26.9507 14.63L26.2032 14L25.5135 14.0583L18.1062 22.6383L15.5834 19.105L14.9038 18.9917L14.1172 19.5433L14 20.21L17.2432 24.7533L17.6119 24.9533L18.3883 25L18.7858 24.83L27 15.305L26.9507 14.63V14.63Z" fill="#F9FAFB"/>
</svg>
