<svg width="40" height="40" viewBox="0 0 40 40" fill="none" xmlns="http://www.w3.org/2000/svg">
<rect width="40" height="40" rx="8" fill="#2A4AC8"/>
<path d="M11.1117 25.8573C11.9163 26.0769 12.7323 26.252 13.5562 26.3817L14.6317 25.1284C13.4278 24.9834 12.2384 24.7366 11.0762 24.3906L11.1117 25.8573Z" fill="#F9FAFB"/>
<path d="M9.33247 28.4715V13.1559C11.9102 14.427 16.7458 14.827 19.9991 14.827C23.2525 14.827 28.088 14.427 30.6658 13.1559V17.6982C29.8569 18.427 26.2214 19.5915 19.9991 19.5915C16.9997 19.6658 14.0054 19.3035 11.1102 18.5159V20.0004C14.0194 20.7092 17.005 21.0555 19.9991 21.0315C23.0747 21.0315 28.1147 20.6315 30.6658 19.3337V22.2048H32.4436V11.0493C32.4436 8.07148 24.6214 7.27148 19.9991 7.27148C15.3769 7.27148 7.55469 8.07148 7.55469 11.0493V28.4715C7.55469 30.2493 10.3725 31.2626 13.6258 31.7782L11.448 29.4937C10.2214 29.1382 9.44802 28.747 9.33247 28.4715ZM19.9991 9.04926C26.3547 9.04926 30.248 10.3293 30.6658 11.0493C30.2569 11.7693 26.3636 13.0493 19.9991 13.0493C13.6347 13.0493 9.60802 11.7248 9.33247 11.1115C9.60802 10.3826 13.5191 9.04926 19.9991 9.04926Z" fill="#F9FAFB"/>
<path d="M32.5247 23.5547H17.7425L12.9336 29.1636L17.7691 34.2214H32.5247C32.9962 34.2214 33.4484 34.0341 33.7818 33.7007C34.1152 33.3673 34.3025 32.9151 34.3025 32.4436V25.2702C34.2864 24.8096 34.092 24.3733 33.7603 24.0532C33.4286 23.7331 32.9856 23.5544 32.5247 23.5547ZM32.5247 32.4436H18.5247L15.3336 29.0925L18.5603 25.3325H32.5247V32.4436Z" fill="#F9FAFB"/>
<path d="M18.3205 28C18.1447 28 17.9729 28.0521 17.8267 28.1498C17.6805 28.2475 17.5666 28.3863 17.4993 28.5487C17.432 28.7111 17.4144 28.8899 17.4487 29.0623C17.483 29.2347 17.5677 29.3931 17.692 29.5174C17.8163 29.6417 17.9747 29.7264 18.1471 29.7607C18.3195 29.795 18.4983 29.7774 18.6607 29.7101C18.8231 29.6428 18.9619 29.5289 19.0596 29.3827C19.1573 29.2366 19.2094 29.0647 19.2094 28.8889C19.2094 28.6531 19.1158 28.427 18.9491 28.2603C18.7824 28.0936 18.5563 28 18.3205 28Z" fill="#F9FAFB"/>
</svg>
