<svg width="40" height="40" viewBox="0 0 40 40" fill="none" xmlns="http://www.w3.org/2000/svg">
<rect width="40" height="40" rx="8" fill="#2A4AC8"/>
<path d="M28.0848 13.435C28.0848 13.866 27.9145 14.2793 27.6113 14.584C27.308 14.8888 26.8968 15.06 26.468 15.06C26.0392 15.06 25.6279 14.8888 25.3247 14.584C25.0215 14.2793 24.8512 13.866 24.8512 13.435C24.8512 13.004 25.0215 12.5907 25.3247 12.286C25.6279 11.9812 26.0392 11.81 26.468 11.81C26.8968 11.81 27.308 11.9812 27.6113 12.286C27.9145 12.5907 28.0848 13.004 28.0848 13.435ZM24.5278 7C22.2812 7.00138 20.1271 7.89893 18.5385 9.49551C16.95 11.0921 16.0569 13.2571 16.0556 15.515C16.0556 16.0181 16.1202 16.503 16.1979 16.9502C16.2092 17.0065 16.2069 17.0647 16.1912 17.1199C16.1754 17.1751 16.1466 17.2257 16.1073 17.2674L8.04254 25.3742C7.37538 26.0444 7.00037 26.9534 7 27.9014V30.725C7 31.9808 8.01408 33 9.26357 33H12.4972C13.0976 33 13.6733 32.7603 14.0978 32.3337C14.5223 31.907 14.7608 31.3284 14.7608 30.725V29.1H17.0257C17.9182 29.1 18.6425 28.372 18.6425 27.475V25.2H20.9061C21.3248 25.2003 21.7273 25.0373 22.0288 24.7454C22.3304 24.4534 22.5075 24.0553 22.5229 23.6348C23.1645 23.8012 23.8422 23.9 24.5278 23.9C26.7743 23.8986 28.9285 23.0011 30.517 21.4045C32.1056 19.8079 32.9986 17.6429 33 15.385C33 10.6647 29.1804 7 24.5278 7ZM17.9958 15.515C17.9971 13.7743 18.6858 12.1052 19.9105 10.8744C21.1352 9.64349 22.7958 8.95138 24.5278 8.95C28.1521 8.95 31.0598 11.7853 31.0598 15.385C31.0584 17.1257 30.3698 18.7948 29.1451 20.0256C27.9204 21.2565 26.2598 21.9486 24.5278 21.95C23.6482 21.95 22.7428 21.7277 21.9344 21.378C21.7867 21.3143 21.6256 21.2884 21.4656 21.3027C21.3055 21.317 21.1515 21.371 21.0173 21.46C20.8832 21.5489 20.7731 21.6699 20.697 21.8122C20.621 21.9545 20.5812 22.1135 20.5814 22.275V23.25H18.3191C17.4266 23.25 16.7023 23.978 16.7023 24.875V27.15H14.4387C13.5462 27.15 12.8219 27.878 12.8219 28.775V30.725C12.8219 30.8112 12.7878 30.8939 12.7272 30.9548C12.6665 31.0158 12.5843 31.05 12.4985 31.05H9.26486C9.1791 31.05 9.09685 31.0158 9.03621 30.9548C8.97556 30.8939 8.9415 30.8112 8.9415 30.725V27.9014C8.9415 27.4711 9.11223 27.0564 9.4149 26.7522L17.481 18.6467C17.7406 18.3835 17.9333 18.0613 18.0427 17.7074C18.1521 17.3534 18.1751 16.9782 18.1096 16.6135C18.0402 16.2513 18.0021 15.8838 17.9958 15.515Z" fill="#F9FAFB"/>
</svg>
