<svg width="21" height="28" viewBox="0 0 21 28" fill="none" xmlns="http://www.w3.org/2000/svg">
<path d="M17.8292 14.7181C18.2033 14.9163 18.5596 15.1464 18.8941 15.4059C20.0616 16.3317 20.5552 17.5357 20.3673 19.0114C20.243 20.1059 19.8562 21.1541 19.2398 22.067C18.4819 23.1682 17.4057 23.7633 16.1079 23.9863C15.0317 24.1717 13.9568 24.1115 12.8832 23.9675C12.4923 23.9161 12.1039 23.8497 11.7168 23.7783C11.5916 23.7545 11.5527 23.7946 11.5239 23.9136C11.2282 25.1188 10.9213 26.3215 10.6282 27.5279C10.5868 27.6983 10.5367 27.7283 10.3651 27.682C9.68731 27.4991 9.00329 27.3325 8.32052 27.1683C8.19524 27.1408 8.18146 27.1057 8.21027 26.9879C8.51345 25.7903 8.80786 24.5901 9.11228 23.3924C9.14611 23.2571 9.13358 23.2008 8.987 23.1657C8.45833 23.0354 7.93132 22.8976 7.40599 22.7523C7.27194 22.7147 7.2331 22.7523 7.20178 22.8775C6.90612 24.0827 6.60045 25.2866 6.30604 26.4918C6.27222 26.6271 6.23338 26.6497 6.09933 26.6171C5.40946 26.4384 4.71667 26.2659 4.02096 26.0997C3.89568 26.0696 3.87814 26.017 3.90695 25.898C4.21263 24.6891 4.50829 23.4776 4.81648 22.2649C4.85657 22.1083 4.82399 22.057 4.67115 22.0144C3.1678 21.6385 1.67574 21.2627 0.177405 20.8869C0.0709179 20.8606 0.0383465 20.8342 0.088458 20.7215C0.454272 19.8863 0.815488 19.0511 1.17211 18.2159C1.21722 18.1094 1.27359 18.1119 1.3688 18.1383C1.88495 18.2736 2.39985 18.4139 2.91975 18.5291C3.5687 18.6732 3.95205 18.4189 4.11241 17.7774C4.60601 15.7972 5.10044 13.8174 5.59571 11.838C5.97154 10.3346 6.34738 8.83129 6.72322 7.32794C6.8748 6.71909 6.55535 6.13278 5.93021 5.89225C5.44326 5.72636 4.94612 5.59203 4.44189 5.49011C4.29407 5.45377 4.14748 5.41494 3.9984 5.38738C3.91697 5.37234 3.9057 5.34102 3.92449 5.2621C4.12118 4.48161 4.31786 3.70112 4.50703 2.91813C4.53961 2.77782 4.62355 2.82292 4.69997 2.84171C5.29379 2.98829 5.8851 3.14112 6.48017 3.28645C7.37968 3.50443 8.27166 3.75624 9.17618 3.95794C9.32526 3.99177 9.38163 3.97297 9.42047 3.81512C9.70861 2.62623 10.0093 1.43483 10.2974 0.252201C10.3338 0.103119 10.3789 0.0605226 10.5355 0.101865C11.2145 0.282266 11.8972 0.451388 12.58 0.61425C12.7241 0.649328 12.7378 0.704456 12.7053 0.838504C12.4071 2.01237 12.1177 3.18873 11.8208 4.3626C11.7895 4.48788 11.802 4.5242 11.9348 4.55427C12.466 4.67078 12.9972 4.79606 13.5246 4.93011C13.6762 4.97019 13.7188 4.92133 13.7526 4.78603C14.0332 3.63848 14.3214 2.49344 14.6007 1.34588C14.6396 1.18803 14.6834 1.13165 14.8638 1.18051C15.5353 1.36217 16.2131 1.52753 16.8896 1.68914C17.0224 1.72046 17.0487 1.76431 17.0149 1.89836C16.7117 3.09602 16.4198 4.29619 16.1129 5.49261C16.074 5.64545 16.1129 5.69055 16.2482 5.74316C17.1883 6.04939 18.0832 6.47999 18.9091 7.02351C19.6846 7.55344 20.3272 8.19988 20.6755 9.09312C21.0513 10.0715 20.9774 11.0562 20.6843 12.0359C20.2709 13.4232 19.3618 14.3001 17.957 14.6668C17.9094 14.6743 17.878 14.6918 17.8292 14.7181ZM12.3846 20.6313H12.5474C13.1337 20.6125 13.71 20.5486 14.245 20.2893C15.5967 19.6328 15.8861 17.8338 14.8187 16.7389C14.1923 16.1 13.4131 15.7366 12.5975 15.4335C11.5953 15.0576 10.5392 14.8422 9.49689 14.5903C9.3453 14.554 9.31649 14.6016 9.28517 14.7294C8.87843 16.3823 8.46668 18.0334 8.04992 19.6829C8.0161 19.8157 8.05744 19.8483 8.1752 19.8759C8.62245 19.9836 9.06593 20.1051 9.51318 20.2141C10.4514 20.4563 11.4136 20.5941 12.3821 20.625L12.3846 20.6313ZM13.4645 12.7888C13.7863 12.7945 14.1079 12.7668 14.4241 12.7062C15.2597 12.5308 15.8636 12.0798 16.1066 11.2366C16.3496 10.3935 16.1504 9.63308 15.4802 9.02422C15.1248 8.71105 14.7212 8.45723 14.285 8.27255C13.3116 7.83783 12.2731 7.61984 11.2383 7.38682C11.113 7.35801 11.103 7.43569 11.0817 7.52213C10.9313 8.12681 10.7797 8.7319 10.6269 9.33742C10.4077 10.2144 10.1897 11.1001 9.96418 11.9795C9.9316 12.1048 9.9529 12.1599 10.0895 12.19C10.35 12.2451 10.6044 12.3241 10.8637 12.388C11.7181 12.5884 12.5762 12.7788 13.462 12.7826L13.4645 12.7888Z" fill="white"/>
</svg>
