<svg width="29" height="33" viewBox="0 0 29 33" fill="none" xmlns="http://www.w3.org/2000/svg">
<path d="M14.0613 0.931641C12.0931 0.931641 10.4971 8.07066 10.4971 16.8772C10.4971 25.6837 12.0931 32.8227 14.0613 32.8227C16.0296 32.8227 17.6256 25.6837 17.6256 16.8772C17.6256 8.07066 16.0296 0.931641 14.0613 0.931641ZM14.3074 31.9228C14.0823 32.223 13.8573 31.9978 13.8573 31.9978C12.9508 30.9475 12.4976 28.9963 12.4976 28.9963C10.9121 23.8938 11.2895 12.9383 11.2895 12.9383C12.0346 4.24077 13.39 2.18615 13.8513 1.73C13.8984 1.68345 13.9604 1.655 14.0264 1.64966C14.0924 1.64433 14.1582 1.66244 14.2122 1.70083C14.8814 2.17506 15.4427 4.15835 15.4427 4.15835C17.1003 10.3114 16.9502 16.0893 16.9502 16.0893C17.1003 21.1168 16.1196 26.7446 16.1196 26.7446C15.3647 31.0216 14.3074 31.9228 14.3074 31.9228Z" fill="white"/>
<path d="M27.8935 8.94191C26.9135 7.23403 19.9275 9.40258 12.2851 13.7849C4.64269 18.1672 -0.74819 23.1046 0.231055 24.8117C1.2103 26.5189 8.19703 24.3511 15.8395 19.9687C23.4819 15.5864 28.8728 10.6491 27.8935 8.94191V8.94191ZM1.13518 24.5774C0.75999 24.5302 0.844743 24.2218 0.844743 24.2218C1.30497 22.9132 2.76954 21.549 2.76954 21.549C6.40804 17.6343 16.0993 12.51 16.0993 12.51C24.0134 8.82784 26.4717 8.98319 27.0953 9.15489C27.1593 9.17275 27.2149 9.2127 27.2523 9.26764C27.2897 9.32259 27.3064 9.38899 27.2995 9.45509C27.2245 10.272 25.78 11.7453 25.78 11.7453C21.2707 16.2468 16.184 18.9924 16.184 18.9924C11.8978 21.6254 6.52824 23.5741 6.52824 23.5741C2.44249 25.0464 1.13532 24.5774 1.13532 24.5774H1.13518Z" fill="white"/>
<path d="M27.8579 24.8682C28.8455 23.1649 23.4682 18.2049 15.8526 13.7896C8.23699 9.37435 1.25187 7.17896 0.265182 8.88524C-0.721502 10.5915 4.65494 15.5486 12.2749 19.9639C19.8949 24.3791 26.8712 26.5747 27.8579 24.8682ZM0.919568 9.54342C0.773695 9.19755 1.08163 9.11426 1.08163 9.11426C2.44496 8.85679 4.35998 9.4435 4.35998 9.4435C9.56983 10.6299 18.8597 16.449 18.8597 16.449C26.0123 21.4541 27.1093 23.6587 27.2737 24.2845C27.2904 24.3486 27.2839 24.4167 27.2554 24.4765C27.2268 24.5364 27.178 24.5843 27.1176 24.6117C26.3718 24.9531 24.3742 24.4443 24.3742 24.4443C18.2173 22.7935 13.2934 19.7688 13.2934 19.7688C8.86921 17.3826 4.49448 13.711 4.49448 13.711C1.17032 10.9121 0.920589 9.54721 0.920589 9.54721L0.919568 9.54342Z" fill="white"/>
<path d="M14.0244 18.7157C15.0604 18.7157 15.9003 17.8758 15.9003 16.8398C15.9003 15.8037 15.0604 14.9639 14.0244 14.9639C12.9883 14.9639 12.1484 15.8037 12.1484 16.8398C12.1484 17.8758 12.9883 18.7157 14.0244 18.7157Z" fill="white"/>
<path d="M21.716 10.7609C22.3169 10.7609 22.8041 10.2569 22.8041 9.63532C22.8041 9.01369 22.3169 8.50977 21.716 8.50977C21.1151 8.50977 20.6279 9.01369 20.6279 9.63532C20.6279 10.2569 21.1151 10.7609 21.716 10.7609Z" fill="white"/>
<path d="M3.85662 14.589C4.45754 14.589 4.94469 14.0851 4.94469 13.4634C4.94469 12.8418 4.45754 12.3379 3.85662 12.3379C3.2557 12.3379 2.76855 12.8418 2.76855 13.4634C2.76855 14.0851 3.2557 14.589 3.85662 14.589Z" fill="white"/>
<path d="M11.8097 28.3956C12.4107 28.3956 12.8978 27.8917 12.8978 27.2701C12.8978 26.6485 12.4107 26.1445 11.8097 26.1445C11.2088 26.1445 10.7217 26.6485 10.7217 27.2701C10.7217 27.8917 11.2088 28.3956 11.8097 28.3956Z" fill="white"/>
</svg>
