<svg width="40" height="40" viewBox="0 0 40 40" fill="none" xmlns="http://www.w3.org/2000/svg">
<path d="M10.956 19.9875L10.9706 25.3531L15.5298 28.0359V31.1773L8.30241 26.9384V18.4184L10.956 19.9875ZM10.956 14.6218V17.7485L8.30078 16.1778V13.0511L10.956 11.4805L13.6242 13.0511L10.956 14.6218ZM17.4338 13.0511L20.0889 11.4805L22.7571 13.0511L20.0889 14.6218L17.4338 13.0511Z" fill="white"/>
<path d="M12.876 24.2409V21.0996L15.5312 22.6703V25.797L12.876 24.2409ZM17.4351 29.1611L20.0903 30.7317L22.7585 29.1611V32.2878L20.0903 33.8585L17.4351 32.2878V29.1611ZM26.5665 13.0511L29.2217 11.4805L31.8899 13.0511V16.1778L29.2217 17.7485V14.6218L26.5665 13.0511ZM29.2217 25.3531L29.2363 19.9875L31.8915 18.4168V26.9368L24.6641 31.1756V28.0343L29.2217 25.3531Z" fill="white"/>
<path d="M27.3183 24.2409L24.6631 25.797V22.6703L27.3183 21.0996V24.2409Z" fill="white"/>
<path d="M27.3177 15.7337L27.3323 18.8751L22.7601 21.5579V26.9365L20.105 28.4926L17.4498 26.9365V21.5579L12.8776 18.8751V15.7337L15.5442 14.1631L20.0887 16.8589L24.6609 14.1631L27.3291 15.7337H27.3177ZM12.876 10.3697L20.0903 6.11621L27.3177 10.3697L24.6625 11.9404L20.0903 9.24454L15.5312 11.9404L12.876 10.3697Z" fill="white"/>
</svg>
