<svg width="29" height="26" viewBox="0 0 29 26" fill="none" xmlns="http://www.w3.org/2000/svg">
<path d="M8.49333 12.7937C8.4345 13.8158 9.22133 14.6909 10.2435 14.7497C10.2802 14.7497 10.317 14.7497 10.3538 14.7497C11.3833 14.7497 12.2142 13.9188 12.2069 12.8893C12.2069 11.8598 11.3759 11.0288 10.3464 11.0362C9.36105 11.0362 8.5448 11.8083 8.49333 12.7937Z" fill="white"/>
<path d="M1.56662 12.3158C1.23571 12.2937 0.948918 12.5511 0.934211 12.882C0.919503 13.2129 1.16952 13.4997 1.50043 13.5144C1.83134 13.5365 2.11078 13.2791 2.13284 12.9482C2.1549 12.6173 1.89753 12.3378 1.56662 12.3158Z" fill="white"/>
<path d="M8.37611 2.01389C8.67026 1.86682 8.78791 1.49914 8.64084 1.205C8.49377 0.910855 8.12609 0.793198 7.83195 0.940269C7.53781 1.08734 7.42015 1.44766 7.56722 1.74181C7.71429 2.0433 8.07462 2.16831 8.37611 2.01389C8.37611 2.01389 8.36876 2.01389 8.37611 2.01389Z" fill="white"/>
<path d="M10.2586 5.30024C10.7145 5.07228 10.8983 4.51341 10.6704 4.05749C10.4424 3.60157 9.88353 3.41773 9.42761 3.64569C8.97168 3.87365 8.78785 4.43252 9.01581 4.88844C9.24377 5.34436 9.80264 5.5282 10.2586 5.30024Z" fill="white"/>
<path d="M3.91964 7.55831C4.27261 7.78627 4.74324 7.69068 4.97855 7.3377C5.20651 6.98473 5.11091 6.51411 4.75794 6.27879C4.40497 6.05083 3.93434 6.14643 3.69903 6.4994C3.46372 6.85237 3.56667 7.33035 3.91964 7.55831Z" fill="white"/>
<path d="M5.04599 11.985C4.53124 11.9555 4.09738 12.3453 4.06797 12.86C4.03855 13.3748 4.42829 13.8086 4.94304 13.8381C5.45779 13.8675 5.89165 13.4777 5.92106 12.963C5.95048 12.4556 5.56074 12.0144 5.04599 11.985Z" fill="white"/>
<path d="M4.02202 18.2131C3.64699 18.4042 3.49256 18.8602 3.68375 19.2426C3.87495 19.6176 4.33087 19.772 4.71325 19.5808C5.08828 19.3896 5.24271 18.9337 5.05152 18.5513C4.86032 18.1763 4.39705 18.0219 4.02202 18.2131Z" fill="white"/>
<path d="M7.6273 10.0654C8.13469 10.3963 8.81122 10.2566 9.13478 9.74924C9.46569 9.24184 9.32597 8.56531 8.81857 8.24176C8.31118 7.91085 7.63465 8.05056 7.31109 8.55796C6.98018 9.058 7.1199 9.73453 7.6273 10.0654Z" fill="white"/>
<path d="M19.0611 5.22661C19.4876 5.50604 20.0685 5.38839 20.3479 4.96188C20.6274 4.53537 20.5097 3.95444 20.0832 3.67501C19.6567 3.39557 19.0758 3.51323 18.7963 3.93973C18.5096 4.37359 18.6272 4.94717 19.0611 5.22661Z" fill="white"/>
<path d="M20.9566 1.95417C21.2361 2.13801 21.6037 2.05712 21.7876 1.77768C21.9714 1.49825 21.8905 1.13057 21.6111 0.946731C21.3317 0.762892 20.964 0.843781 20.7801 1.11586C20.6037 1.3953 20.6846 1.77033 20.9566 1.95417Z" fill="white"/>
<path d="M19.2004 11.0217C18.1782 10.9628 17.2958 11.7497 17.2443 12.7718C17.1855 13.7939 17.9723 14.6764 18.9945 14.7278C19.0312 14.7278 19.068 14.7278 19.0974 14.7278C20.1195 14.7278 20.9505 13.8969 20.9505 12.8674C20.9579 11.8894 20.1857 11.0731 19.2004 11.0217Z" fill="white"/>
<path d="M10.8692 9.93287C11.1854 10.5579 11.8251 10.955 12.5311 10.955C13.5532 10.955 14.3842 10.1241 14.3842 9.09456C14.3842 8.80777 14.318 8.52099 14.1856 8.25626C13.7224 7.33706 12.6046 6.96939 11.6928 7.43266C10.7736 7.90329 10.4059 9.02103 10.8692 9.93287Z" fill="white"/>
<path d="M25.4215 7.55742C25.7965 7.36623 25.9436 6.90295 25.7524 6.52792C25.5612 6.15289 25.0979 6.00582 24.7229 6.19701C24.3479 6.3882 24.2008 6.84412 24.3846 7.21915C24.5832 7.59419 25.0391 7.74861 25.4215 7.55742Z" fill="white"/>
<path d="M20.7153 8.14571C20.1785 8.41779 19.9579 9.07226 20.23 9.60907C20.5021 10.1459 21.1565 10.3665 21.6934 10.0944C22.2302 9.82232 22.4508 9.16786 22.1787 8.63105C21.9066 8.09424 21.2521 7.88098 20.7153 8.14571Z" fill="white"/>
<path d="M14.6485 1.67516C15.0676 1.69722 15.4279 1.37366 15.4574 0.95451C15.4868 0.535357 15.1559 0.175033 14.7367 0.145619C14.3176 0.123558 13.9572 0.439761 13.9278 0.858914C13.9058 1.28542 14.2293 1.64574 14.6485 1.67516Z" fill="white"/>
<path d="M14.6402 6.47753C15.2432 6.5143 15.758 6.05102 15.7874 5.44803C15.8241 4.84504 15.3609 4.33029 14.7579 4.30087C14.1549 4.26411 13.6401 4.72738 13.6107 5.33037C13.5813 5.93336 14.0372 6.44811 14.6402 6.47753Z" fill="white"/>
<path d="M8.72949 17.625C9.2663 17.3529 9.4869 16.6984 9.21482 16.1616C8.94274 15.6248 8.28827 15.4042 7.75146 15.6763C7.21465 15.9484 6.99404 16.6028 7.26613 17.1396C7.53821 17.6765 8.19268 17.8971 8.72949 17.625Z" fill="white"/>
<path d="M15.3467 8.07268C14.7878 8.93305 15.0232 10.0802 15.8835 10.6391C16.7439 11.1979 17.8911 10.9626 18.4499 10.1023C19.0088 9.2419 18.7735 8.09474 17.9131 7.53587C17.6116 7.33732 17.2586 7.23438 16.8983 7.23438C16.2733 7.23438 15.6923 7.55058 15.3467 8.07268Z" fill="white"/>
<path d="M18.5753 15.8383C18.112 14.9191 16.9943 14.5514 16.0824 15.0147C15.1632 15.478 14.7956 16.5957 15.2588 17.5075C15.7221 18.4267 16.8398 18.7944 17.7517 18.3311C18.6635 17.8752 19.0386 16.7722 18.5826 15.853C18.5826 15.8456 18.5826 15.8456 18.5753 15.8383Z" fill="white"/>
<path d="M21.8186 15.7056C21.3112 15.3747 20.6346 15.5144 20.3111 16.0218C19.9802 16.5292 20.1199 17.2058 20.6273 17.5293C21.1347 17.8602 21.8112 17.7205 22.1348 17.2131C22.4657 16.7131 22.326 16.0365 21.8186 15.7056Z" fill="white"/>
<path d="M25.3771 12.919C25.4065 12.4043 25.0168 11.9704 24.502 11.941C23.9873 11.9116 23.5534 12.3013 23.524 12.8161C23.4946 13.3308 23.8843 13.7647 24.3991 13.7941C24.9065 13.8235 25.3477 13.4264 25.3771 12.919Z" fill="white"/>
<path d="M27.9426 12.2572C27.6117 12.2351 27.3249 12.4925 27.3102 12.8234C27.2955 13.1543 27.5455 13.4411 27.8764 13.4558C28.2073 13.4779 28.4868 13.2205 28.5088 12.8896C28.5235 12.5587 28.2735 12.2792 27.9426 12.2572Z" fill="white"/>
<path d="M25.5242 18.2134C25.1713 17.9854 24.7006 18.081 24.4653 18.434C24.2374 18.7869 24.333 19.2576 24.6859 19.4929C25.0389 19.7208 25.5095 19.6252 25.7448 19.2723C25.9801 18.9193 25.8772 18.4413 25.5242 18.2134Z" fill="white"/>
<path d="M8.47983 23.8168C8.2004 23.633 7.83272 23.7139 7.64888 23.986C7.46504 24.2654 7.54593 24.6331 7.81801 24.8169C8.09745 25.0008 8.46512 24.9199 8.64896 24.6478C8.84016 24.3757 8.75927 24.0007 8.47983 23.8168Z" fill="white"/>
<path d="M21.0673 23.7578C20.7732 23.9048 20.6555 24.2725 20.8026 24.5667C20.9496 24.8608 21.3173 24.9785 21.6115 24.8314C21.9056 24.6843 22.0233 24.324 21.8762 24.0298C21.7291 23.7284 21.3688 23.6033 21.0673 23.7578C21.0673 23.7578 21.0747 23.7578 21.0673 23.7578Z" fill="white"/>
<path d="M14.0963 17.6988C14.6551 16.8384 14.4198 15.6913 13.5595 15.125C12.6991 14.5662 11.5519 14.8015 10.9857 15.6619C10.4195 16.5222 10.6622 17.6694 11.5225 18.2356C11.824 18.4341 12.177 18.5371 12.5373 18.5371C13.1697 18.5444 13.7506 18.2282 14.0963 17.6988Z" fill="white"/>
<path d="M10.3838 20.5441C9.95725 20.2647 9.37632 20.3824 9.09688 20.8089C8.81745 21.2354 8.9351 21.8163 9.36161 22.0957C9.78812 22.3752 10.369 22.2575 10.6485 21.831C10.9353 21.4045 10.8176 20.8236 10.3838 20.5441Z" fill="white"/>
<path d="M14.714 24.0958C14.2949 24.0737 13.9346 24.3973 13.9051 24.8164C13.8757 25.2356 14.2066 25.5959 14.6258 25.6253C15.0449 25.6474 15.4053 25.3312 15.4347 24.912C15.4567 24.4855 15.1332 24.1252 14.714 24.0958Z" fill="white"/>
<path d="M14.7224 19.294C14.1195 19.2573 13.6047 19.7205 13.5753 20.3235C13.5385 20.9265 14.0018 21.4413 14.6048 21.4707C15.2078 21.5001 15.7225 21.0442 15.7519 20.4412C15.7887 19.8456 15.3254 19.3235 14.7224 19.294Z" fill="white"/>
<path d="M19.1867 20.4712C18.7308 20.7065 18.547 21.2654 18.7823 21.7213C19.0176 22.1772 19.5765 22.361 20.0324 22.1257C20.4883 21.8978 20.6722 21.3389 20.4442 20.883C20.2089 20.4271 19.65 20.2359 19.1867 20.4712Z" fill="white"/>
</svg>
