<svg width="25" height="20" viewBox="0 0 25 20" fill="none" xmlns="http://www.w3.org/2000/svg">
<path d="M20.8709 0.0478516H24.3437L17.1167 7.20354C14.4994 9.79353 10.2561 9.79353 7.63706 7.20354L0.407227 0.0478516H3.88276L9.37342 5.4836C10.1734 6.27205 11.2515 6.71404 12.3747 6.71404C13.498 6.71404 14.5761 6.27205 15.3761 5.4836L20.8709 0.0478516Z" fill="white"/>
<path d="M3.83835 19.945H0.363281L7.63723 12.7452C10.2544 10.1552 14.4977 10.1552 17.1168 12.7452L24.3908 19.945H20.918L15.3805 14.4652C14.5805 13.6767 13.5024 13.2347 12.3791 13.2347C11.2559 13.2347 10.1778 13.6767 9.37781 14.4652L3.83835 19.945Z" fill="white"/>
</svg>
