<svg width="31" height="25" viewBox="0 0 31 25" fill="none" xmlns="http://www.w3.org/2000/svg">
<g clip-path="url(#clip0_601_1461)">
<path d="M0.714844 15.2675L0.847468 14.6858C1.01266 13.975 1.16157 13.2607 1.36516 12.5604C1.47377 12.1685 1.65104 11.7991 1.88868 11.4691C2.25942 10.9716 2.79089 10.6177 3.39289 10.4675C3.79781 10.3603 4.21534 10.3082 4.63418 10.3128C8.28711 10.3128 11.9408 10.3128 15.5953 10.3128C15.6639 10.3128 15.6756 10.3256 15.6605 10.3942C15.4627 11.2888 15.2731 12.1846 15.0218 13.0699C14.9027 13.5078 14.6935 13.9159 14.4075 14.2682C14.0269 14.7191 13.51 15.0339 12.9347 15.1651C12.5304 15.2634 12.1153 15.3099 11.6992 15.3036C8.06491 15.3036 4.43059 15.3036 0.796273 15.3036H0.714844V15.2675Z" fill="white"/>
<path d="M5.08984 24.7995L5.36205 23.2754C5.50165 22.4906 5.64166 21.7045 5.78203 20.9173C5.84253 20.5683 5.89838 20.231 5.96352 19.8866C5.97283 19.8331 5.9926 19.8168 6.04728 19.8168L13.5486 19.8226C14.2059 19.8226 14.862 19.8226 15.5193 19.8226C16.4251 19.8271 17.3293 19.7448 18.2195 19.5771C19.0768 19.4216 19.9024 19.1248 20.6625 18.6988C21.6149 18.1486 22.382 17.3273 22.8659 16.3395C23.1831 15.6825 23.4303 14.9938 23.6035 14.285C23.8001 13.5358 23.9699 12.7808 24.0991 12.0177C24.2205 11.377 24.2766 10.7257 24.2666 10.0737C24.2628 9.42018 24.1262 8.77425 23.8652 8.1751C23.5162 7.41194 22.9264 6.88261 22.1784 6.52081C21.624 6.26458 21.0367 6.08681 20.4333 5.99264C19.6753 5.87003 18.9082 5.81166 18.1404 5.81814C15.7834 5.81814 13.426 5.81622 11.0683 5.81235C10.2098 5.81235 9.35005 5.81235 8.49149 5.81235C8.42518 5.81235 8.41587 5.79255 8.42634 5.73205C8.62876 4.61058 8.83001 3.48834 9.03011 2.36531C9.11853 1.87205 9.20656 1.37879 9.2942 0.885527C9.30118 0.845973 9.31398 0.821544 9.35935 0.829688C9.37678 0.830851 9.39426 0.830851 9.4117 0.829688C12.7831 0.829688 16.1545 0.829688 19.5259 0.829688C20.3868 0.829688 21.2477 0.838999 22.1062 0.921598C23.288 1.0147 24.4519 1.2671 25.5661 1.67196C26.4933 2.00873 27.3437 2.52769 28.0673 3.19826C28.8261 3.92414 29.3964 4.82425 29.7285 5.82047C29.9283 6.40653 30.0675 7.01154 30.1438 7.626C30.2308 8.30988 30.2639 8.99955 30.2427 9.68862C30.2243 10.35 30.1727 11.0101 30.088 11.6663C29.9821 12.4981 29.8425 13.3241 29.6564 14.1408C29.3118 15.7349 28.7459 17.273 27.9754 18.7104C27.3886 19.7967 26.6388 20.7865 25.7522 21.6456C24.7131 22.6338 23.4869 23.4043 22.1458 23.9118C21.2695 24.2512 20.3561 24.4856 19.4247 24.6098C18.8279 24.6912 18.2276 24.7401 17.6262 24.7715C16.8409 24.8111 16.0568 24.8134 15.2715 24.8134H5.17942C5.14894 24.8147 5.1185 24.8099 5.08984 24.7995V24.7995Z" fill="white"/>
</g>
<defs>
<clipPath id="clip0_601_1461">
<rect width="29.5329" height="23.9826" fill="white" transform="translate(0.717773 0.826172)"/>
</clipPath>
</defs>
</svg>
