<svg width="40" height="40" viewBox="0 0 40 40" fill="none" xmlns="http://www.w3.org/2000/svg">
<rect width="40" height="40" rx="20" fill="#F6931A"/>
<path d="M27.3292 20.7181C27.7033 20.9163 28.0596 21.1464 28.3941 21.4059C29.5616 22.3317 30.0552 23.5357 29.8673 25.0114C29.743 26.1059 29.3562 27.1541 28.7398 28.067C27.9819 29.1682 26.9057 29.7633 25.6079 29.9863C24.5317 30.1717 23.4568 30.1115 22.3832 29.9675C21.9923 29.9161 21.6039 29.8497 21.2168 29.7783C21.0916 29.7545 21.0527 29.7946 21.0239 29.9136C20.7282 31.1188 20.4213 32.3215 20.1282 33.5279C20.0868 33.6983 20.0367 33.7283 19.8651 33.682C19.1873 33.4991 18.5033 33.3325 17.8205 33.1683C17.6952 33.1408 17.6815 33.1057 17.7103 32.9879C18.0134 31.7903 18.3079 30.5901 18.6123 29.3924C18.6461 29.2571 18.6336 29.2008 18.487 29.1657C17.9583 29.0354 17.4313 28.8976 16.906 28.7523C16.7719 28.7147 16.7331 28.7523 16.7018 28.8775C16.4061 30.0827 16.1004 31.2866 15.806 32.4918C15.7722 32.6271 15.7334 32.6497 15.5993 32.6171C14.9095 32.4384 14.2167 32.2659 13.521 32.0997C13.3957 32.0696 13.3781 32.017 13.407 31.898C13.7126 30.6891 14.0083 29.4776 14.3165 28.2649C14.3566 28.1083 14.324 28.057 14.1711 28.0144C12.6678 27.6385 11.1757 27.2627 9.6774 26.8869C9.57092 26.8606 9.53835 26.8342 9.58846 26.7215C9.95427 25.8863 10.3155 25.0511 10.6721 24.2159C10.7172 24.1094 10.7736 24.1119 10.8688 24.1383C11.385 24.2736 11.8998 24.4139 12.4198 24.5291C13.0687 24.6732 13.4521 24.4189 13.6124 23.7774C14.106 21.7972 14.6004 19.8174 15.0957 17.838C15.4715 16.3346 15.8474 14.8313 16.2232 13.3279C16.3748 12.7191 16.0553 12.1328 15.4302 11.8922C14.9433 11.7264 14.4461 11.592 13.9419 11.4901C13.7941 11.4538 13.6475 11.4149 13.4984 11.3874C13.417 11.3723 13.4057 11.341 13.4245 11.2621C13.6212 10.4816 13.8179 9.70112 14.007 8.91813C14.0396 8.77782 14.1235 8.82292 14.2 8.84171C14.7938 8.98829 15.3851 9.14112 15.9802 9.28645C16.8797 9.50443 17.7717 9.75624 18.6762 9.95794C18.8253 9.99177 18.8816 9.97297 18.9205 9.81512C19.2086 8.62623 19.5093 7.43483 19.7974 6.2522C19.8338 6.10312 19.8789 6.06052 20.0355 6.10186C20.7145 6.28227 21.3972 6.45139 22.08 6.61425C22.2241 6.64933 22.2378 6.70446 22.2053 6.8385C21.9071 8.01237 21.6177 9.18873 21.3208 10.3626C21.2895 10.4879 21.302 10.5242 21.4348 10.5543C21.966 10.6708 22.4972 10.7961 23.0246 10.9301C23.1762 10.9702 23.2188 10.9213 23.2526 10.786C23.5332 9.63848 23.8214 8.49344 24.1007 7.34588C24.1396 7.18803 24.1834 7.13165 24.3638 7.18051C25.0353 7.36217 25.7131 7.52753 26.3896 7.68914C26.5224 7.72046 26.5487 7.76431 26.5149 7.89836C26.2117 9.09602 25.9198 10.2962 25.6129 11.4926C25.574 11.6454 25.6129 11.6905 25.7482 11.7432C26.6883 12.0494 27.5832 12.48 28.4091 13.0235C29.1846 13.5534 29.8272 14.1999 30.1755 15.0931C30.5513 16.0715 30.4774 17.0562 30.1843 18.0359C29.7709 19.4232 28.8618 20.3001 27.457 20.6668C27.4094 20.6743 27.378 20.6918 27.3292 20.7181ZM21.8846 26.6313H22.0474C22.6337 26.6125 23.21 26.5486 23.745 26.2893C25.0967 25.6328 25.3861 23.8338 24.3187 22.7389C23.6923 22.1 22.9131 21.7366 22.0975 21.4335C21.0953 21.0576 20.0392 20.8422 18.9969 20.5903C18.8453 20.554 18.8165 20.6016 18.7852 20.7294C18.3784 22.3823 17.9667 24.0334 17.5499 25.6829C17.5161 25.8157 17.5574 25.8483 17.6752 25.8759C18.1224 25.9836 18.5659 26.1051 19.0132 26.2141C19.9514 26.4563 20.9136 26.5941 21.8821 26.625L21.8846 26.6313ZM22.9645 18.7888C23.2863 18.7945 23.6079 18.7668 23.9241 18.7062C24.7597 18.5308 25.3636 18.0798 25.6066 17.2366C25.8496 16.3935 25.6504 15.6331 24.9802 15.0242C24.6248 14.711 24.2212 14.4572 23.785 14.2725C22.8116 13.8378 21.7731 13.6198 20.7383 13.3868C20.613 13.358 20.603 13.4357 20.5817 13.5221C20.4313 14.1268 20.2797 14.7319 20.1269 15.3374C19.9077 16.2144 19.6897 17.1001 19.4642 17.9795C19.4316 18.1048 19.4529 18.1599 19.5895 18.19C19.85 18.2451 20.1044 18.3241 20.3637 18.388C21.2181 18.5884 22.0762 18.7788 22.962 18.7826L22.9645 18.7888Z" fill="white"/>
</svg>
