<svg width="40" height="40" viewBox="0 0 40 40" fill="none" xmlns="http://www.w3.org/2000/svg">
<g clip-path="url(#clip0_305_12248)">
<path d="M20.0279 25.1955C19.9433 25.2242 19.895 25.1506 19.8375 25.1168C17.0174 23.4523 14.2003 21.7867 11.3864 20.12C11.3591 20.1063 11.3308 20.0947 11.3018 20.0853V20.0481L11.3517 20.0193C11.4226 20.0007 11.4923 19.9781 11.5607 19.9517L18.2063 16.9279C18.7986 16.658 19.3908 16.3924 19.983 16.125H20.0253C20.0253 16.2096 20.0253 16.2849 20.0253 16.3653C20.0276 19.3089 20.0284 22.2523 20.0279 25.1955Z" fill="white"/>
<path d="M20.0325 16.1271H19.9902C19.9902 16.0424 19.9987 15.9578 19.9987 15.869C19.9987 12.5627 19.9987 9.25604 19.9987 5.94913C19.989 5.86419 19.9947 5.7782 20.0156 5.69531H20.0334C20.3811 6.20886 20.684 6.75033 21.0038 7.2808C23.5374 11.4834 26.0696 15.6854 28.6004 19.8869C28.625 19.9283 28.6444 19.9715 28.6664 20.0172C28.5948 20.0019 28.5243 19.9812 28.4558 19.9554C27.9913 19.7456 27.5251 19.5324 27.0649 19.3183C26.344 18.9884 25.6229 18.659 24.9015 18.3302L21.426 16.7557C20.9632 16.5425 20.4979 16.3352 20.0325 16.1271Z" fill="white"/>
<path d="M20.0181 5.69107C19.9972 5.77396 19.9914 5.85995 20.0011 5.94488C20.0011 9.25123 20.0011 12.5579 20.0011 15.8648C20.0011 15.9494 19.9961 16.034 19.9927 16.1228C19.4005 16.3902 18.8082 16.6558 18.216 16.9257L11.5703 19.9495C11.502 19.9759 11.4322 19.9985 11.3613 20.0172C11.5534 19.6178 11.803 19.2557 12.0306 18.8733C14.6674 14.4902 17.3062 10.108 19.947 5.7266C19.9644 5.70233 19.9834 5.67916 20.0037 5.65723L20.0181 5.69107Z" fill="white"/>
<path d="M20.0325 16.127C20.4979 16.3351 20.9632 16.5424 21.4277 16.7522L24.9032 18.3267C25.6252 18.6549 26.3463 18.9843 27.0666 19.3149C27.5302 19.5272 27.9972 19.7421 28.4575 19.9519C28.5261 19.9777 28.5965 19.9984 28.6681 20.0137C28.7527 20.1194 28.6275 20.1237 28.5895 20.1465C27.8678 20.578 27.1427 21.0036 26.4193 21.4317C24.3432 22.6601 22.2675 23.8883 20.1925 25.1162C20.14 25.1466 20.0833 25.1695 20.0283 25.1957C20.0283 22.2532 20.0283 19.3103 20.0283 16.3672C20.0292 16.2869 20.0317 16.2073 20.0325 16.127Z" fill="white"/>
<path d="M19.9981 26.8673L25.4339 23.6634C26.4718 23.0508 27.509 22.4377 28.5457 21.8241L28.6396 21.7725C28.6489 21.8571 28.5905 21.9019 28.555 21.951C26.1861 25.2906 23.8171 28.6291 21.4482 31.9665C20.9998 32.5993 20.5523 33.2355 20.0996 33.8633C20.0759 33.8963 20.0396 34.0511 19.9668 33.887C20.0243 33.8379 19.9989 33.7719 19.9989 33.7178C19.9995 31.4335 19.9992 29.15 19.9981 26.8673Z" fill="white"/>
<path d="M19.9976 26.8679C19.9976 29.1505 19.9976 31.4326 19.9976 33.7141C19.9976 33.7725 20.023 33.8385 19.9655 33.8833C19.8445 33.8105 19.792 33.6803 19.7117 33.5728C16.9648 29.7036 14.2194 25.8337 11.4754 21.9634C11.4407 21.9143 11.4086 21.8618 11.373 21.8077C11.4441 21.7662 11.4822 21.8229 11.5236 21.8475C14.3015 23.4877 17.0788 25.1293 19.8555 26.7723C19.9071 26.8044 19.9511 26.8374 19.9976 26.8679Z" fill="white"/>
<path d="M20.0184 5.69068L19.998 5.65938C20.0353 5.63569 20.0302 5.67038 20.0361 5.68814L20.0184 5.69068Z" fill="white"/>
</g>
<defs>
<clipPath id="clip0_305_12248">
<rect width="17.3913" height="28.3095" fill="white" transform="translate(11.3047 5.65234)"/>
</clipPath>
</defs>
</svg>
