<svg width="22" height="18" viewBox="0 0 22 18" fill="none" xmlns="http://www.w3.org/2000/svg">
<path d="M3.98359 13.4403C4.11054 13.3127 4.28509 13.2383 4.47023 13.2383H21.2595C21.5663 13.2383 21.7197 13.6103 21.5028 13.8282L18.1862 17.1608C18.0592 17.2883 17.8847 17.3627 17.6996 17.3627H0.910321C0.603523 17.3627 0.450125 16.9907 0.666999 16.7728L3.98359 13.4403Z" fill="white"/>
<path d="M3.98359 0.99787C4.11583 0.870309 4.29038 0.795898 4.47023 0.795898H21.2595C21.5663 0.795898 21.7197 1.16795 21.5028 1.38587L18.1862 4.71839C18.0592 4.84595 17.8847 4.92036 17.6995 4.92036H0.910321C0.603523 4.92036 0.450125 4.54831 0.666999 4.33039L3.98359 0.99787Z" fill="white"/>
<path d="M18.1862 7.17951C18.0592 7.05195 17.8847 6.97754 17.6996 6.97754H0.910321C0.603523 6.97754 0.450125 7.34959 0.666999 7.56751L3.98359 10.9C4.11054 11.0276 4.28509 11.102 4.47023 11.102H21.2595C21.5663 11.102 21.7197 10.73 21.5028 10.512L18.1862 7.17951Z" fill="white"/>
</svg>
