<svg width="28" height="24" viewBox="0 0 28 24" fill="none" xmlns="http://www.w3.org/2000/svg">
<g clip-path="url(#clip0_601_362)">
<path d="M20.68 7.37939C20.1942 7.1018 19.5696 7.1018 19.0144 7.37939L15.1282 9.66951L12.4911 11.1269L8.6742 13.417C8.18842 13.6946 7.56384 13.6946 7.00866 13.417L4.02457 11.6126C3.53878 11.3351 3.1918 10.7799 3.1918 10.1553V6.68542C3.1918 6.13024 3.46939 5.57506 4.02457 5.22807L7.00866 3.49313C7.49444 3.21554 8.11902 3.21554 8.6742 3.49313L11.6583 5.29747C12.1441 5.57506 12.4911 6.13024 12.4911 6.75482V9.04494L15.1282 7.51819V5.15867C15.1282 4.60349 14.8506 4.04831 14.2954 3.70132L8.7436 0.439638C8.25782 0.162048 7.63324 0.162048 7.07806 0.439638L1.38746 3.77072C0.832278 4.04831 0.554688 4.60349 0.554688 5.15867V11.682C0.554688 12.2372 0.832278 12.7924 1.38746 13.1394L7.00866 16.4011C7.49444 16.6787 8.11902 16.6787 8.6742 16.4011L12.4911 14.1804L15.1282 12.6536L18.945 10.4329C19.4308 10.1553 20.0554 10.1553 20.6106 10.4329L23.5947 12.1678C24.0805 12.4454 24.4275 13.0006 24.4275 13.6252V17.0951C24.4275 17.6502 24.1499 18.2054 23.5947 18.5524L20.68 20.2873C20.1942 20.5649 19.5696 20.5649 19.0144 20.2873L16.0303 18.5524C15.5446 18.2748 15.1976 17.7196 15.1976 17.0951V14.8743L12.5605 16.4011V18.6912C12.5605 19.2464 12.8381 19.8016 13.3932 20.1485L19.0144 23.4102C19.5002 23.6878 20.1248 23.6878 20.68 23.4102L26.3012 20.1485C26.787 19.871 27.134 19.3158 27.134 18.6912V12.0984C27.134 11.5432 26.8564 10.9881 26.3012 10.6411L20.68 7.37939Z" fill="white"/>
</g>
<defs>
<clipPath id="clip0_601_362">
<rect width="26.6487" height="23.2482" fill="white" transform="translate(0.552734 0.300781)"/>
</clipPath>
</defs>
</svg>
