<svg width="84" height="41" viewBox="0 0 84 41" fill="none" xmlns="http://www.w3.org/2000/svg">
<path d="M2.84233 35.1346H0V39.75C0 40.3023 0.447717 40.75 1 40.75H83C83.5523 40.75 84 40.3023 84 39.75V5.24451L81.5 3.75L79.4386 2.10087C79.1662 1.88297 78.8 1.82274 78.4722 1.94195L73.711 3.67329C73.572 3.7238 73.4461 3.80448 73.3421 3.90951L70.6615 6.61695C70.3667 6.91476 69.9174 6.99713 69.536 6.82327L67.1119 5.71808C66.5618 5.46728 65.9167 5.75822 65.7405 6.33656L63.5528 13.5177C63.3184 14.2872 62.3176 14.4791 61.8152 13.8509L60.012 11.5959C59.7315 11.2451 59.1827 11.3001 58.9773 11.6995C58.8035 12.0378 58.3687 12.1409 58.0614 11.9167L57.5007 11.5077C57.019 11.1563 56.3388 11.3019 56.0431 11.8196L54.4099 14.6789C54.1888 15.0659 53.7383 15.2599 53.3053 15.1546L51.8903 14.8105C51.3715 14.6844 50.8451 14.9881 50.6946 15.5004L48.0264 24.5832C47.9404 24.876 47.7254 25.1135 47.4425 25.2281L44.0997 26.5829C43.6318 26.7725 43.096 26.5836 42.8504 26.1426L40.8601 22.5689C40.4716 21.8712 39.4623 21.888 39.0971 22.5982L38.5936 23.5777C38.4785 23.8015 38.2833 23.9737 38.0469 24.06L35.79 24.8831C35.5063 24.9866 35.2846 25.2127 35.1867 25.4984L33.7204 29.7768C33.613 30.09 33.3576 30.3298 33.0382 30.4171L29.7804 31.3083C29.567 31.3667 29.379 31.4942 29.2458 31.6708L27.3723 34.1557C26.9911 34.6612 26.2421 34.6898 25.8235 34.2148L24.9047 33.1722C24.5748 32.7978 24.0194 32.724 23.6032 32.9991L18.4947 36.3748C18.152 36.6012 17.7058 36.5951 17.3694 36.3594L16.2075 35.545C15.8573 35.2996 15.3898 35.304 15.0443 35.556L13.8365 36.437C13.6654 36.5619 13.459 36.6291 13.2472 36.6291H9.8907C9.62497 36.6291 9.37016 36.5234 9.18254 36.3352L6.17626 33.3198C5.75213 32.8944 5.05132 32.9363 4.68087 33.4092L3.62955 34.7513C3.44 34.9933 3.1497 35.1346 2.84233 35.1346Z" fill="url(#paint0_linear_217_31820)"/>
<path d="M0.5 35.1346H2.84236C3.14973 35.1346 3.44003 34.9933 3.62957 34.7513L4.6809 33.4092C5.05134 32.9363 5.75216 32.8944 6.17629 33.3198L9.18256 36.3352C9.37018 36.5234 9.62499 36.6291 9.89073 36.6291H13.2472C13.4591 36.6291 13.6654 36.5619 13.8365 36.437L14.8853 35.672C15.3027 35.3675 15.8833 35.4311 16.2249 35.8187L17.2899 37.0273C17.6455 37.4307 18.2564 37.4807 18.6729 37.1405L23.5833 33.1287C23.9997 32.7885 24.6107 32.8385 24.9662 33.242L25.8236 34.2148C26.2421 34.6898 26.9911 34.6612 27.3723 34.1557L29.2458 31.6708C29.379 31.4942 29.567 31.3667 29.7804 31.3083L33.0383 30.4171C33.3576 30.3298 33.6131 30.09 33.7204 29.7768L35.1867 25.4984C35.2846 25.2127 35.5063 24.9866 35.79 24.8831L38.0469 24.06C38.2833 23.9737 38.4786 23.8015 38.5936 23.5777L39.0972 22.5982C39.4623 21.888 40.4716 21.8712 40.8602 22.5689L42.8505 26.1426C43.0961 26.5836 43.6319 26.7725 44.0997 26.5829L47.4426 25.2281C47.7254 25.1135 47.9404 24.876 48.0264 24.5832L50.6946 15.5004C50.8451 14.9881 51.3715 14.6844 51.8903 14.8105L53.3053 15.1546C53.7384 15.2599 54.1889 15.0659 54.4099 14.6789L56.0431 11.8196C56.3388 11.3019 57.0191 11.1563 57.5008 11.5077L58.0615 11.9167C58.3687 12.1409 58.8035 12.0378 58.9774 11.6995V11.6995C59.1827 11.3001 59.7315 11.2451 60.012 11.5959L61.8153 13.8509C62.3176 14.4791 63.3184 14.2872 63.5529 13.5177L65.7405 6.33657C65.9167 5.75822 66.5618 5.46728 67.1119 5.71808L69.5361 6.82327C69.9174 6.99713 70.3667 6.91476 70.6615 6.61695L73.3706 3.88069C73.4562 3.79429 73.5568 3.72421 73.6674 3.6739L78.4084 1.51893C78.7681 1.35539 79.1905 1.41908 79.486 1.68143L83.5 5.24451" stroke="#DF2040" stroke-linecap="round"/>
<defs>
<linearGradient id="paint0_linear_217_31820" x1="42" y1="3.75" x2="42" y2="40.75" gradientUnits="userSpaceOnUse">
<stop stop-color="#DF2040" stop-opacity="0.2"/>
<stop offset="1" stop-color="#DF2040" stop-opacity="0"/>
</linearGradient>
</defs>
</svg>
