<svg width="86" height="36" viewBox="0 0 86 36" fill="none" xmlns="http://www.w3.org/2000/svg">
<path d="M2.72546 31.9496L1 30.3571V34.5C1 35.0523 1.44772 35.5 2 35.5H84C84.5523 35.5 85 35.0523 85 34.5V24V22.5V20V8.66214C85 7.95293 84.2822 7.4691 83.6248 7.7352L80.5 9L75.4283 10.6005C75.1959 10.6738 74.9982 10.8295 74.8725 11.0384L73.9402 12.5872C73.7593 12.8877 73.4342 13.0714 73.0834 13.0714H69.5731C69.2783 13.0714 68.9985 12.9413 68.8084 12.7159L68.1986 11.9922C67.7114 11.4141 66.7837 11.5648 66.5046 12.2674L65.1481 15.6816C64.7893 16.5848 63.4833 16.4971 63.2484 15.5541L61.2414 7.49666C61.1899 7.29001 61.0738 7.10519 60.91 6.96912L58.7054 5.13795C58.4653 4.9385 58.1458 4.86262 57.8416 4.9328L55.686 5.43015C55.236 5.53399 54.7734 5.31612 54.5668 4.90304L53.2506 2.27112C52.8837 1.53738 51.838 1.53329 51.4653 2.26414L49.7067 5.71318C49.4056 6.30355 48.5553 6.28337 48.2826 5.67938C47.9993 5.05177 47.1046 5.06174 46.8353 5.69551L45.736 8.28246C45.3758 9.13012 44.1583 9.08139 43.867 8.20766L42.3329 3.60633C42.0208 2.67006 40.685 2.70401 40.4208 3.65492L38.6629 9.98198C38.5427 10.4148 38.1486 10.7143 37.6994 10.7143H37.2217C36.7779 10.7143 36.3871 11.0068 36.2621 11.4327L32.8321 23.1209C32.8001 23.23 32.7498 23.3328 32.6832 23.4249L29.0011 28.5223C28.6177 29.0531 27.8361 29.0783 27.4193 28.5734L26.4486 27.3976C26.1665 27.0559 25.6932 26.9406 25.2856 27.1142L22.809 28.1691C22.4835 28.3078 22.2555 28.6081 22.2094 28.9589L21.8305 31.8445C21.7651 32.3422 21.3409 32.7143 20.839 32.7143H19.1717C18.8146 32.7143 18.4845 32.5238 18.3059 32.2146L16.0132 28.2473C15.6378 27.5977 14.7073 27.5775 14.3041 28.2101L11.6678 32.3462C11.304 32.9171 10.4899 32.969 10.0564 32.449L7.50029 29.3822C7.08233 28.8807 6.30376 28.9077 5.9215 29.4369L4.2143 31.8003C3.86317 32.2864 3.16613 32.3563 2.72546 31.9496Z" fill="url(#paint0_linear_217_31805)"/>
<path d="M1 30.3571L2.72546 31.9496C3.16613 32.3563 3.86317 32.2864 4.2143 31.8003L5.9215 29.4369C6.30376 28.9077 7.08233 28.8807 7.50029 29.3822L10.0564 32.449C10.4899 32.969 11.304 32.9171 11.6678 32.3462L14.3041 28.2101C14.7073 27.5775 15.6378 27.5977 16.0132 28.2473L18.3059 32.2146C18.4845 32.5238 18.8146 32.7143 19.1717 32.7143H20.839C21.3409 32.7143 21.7651 32.3422 21.8305 31.8445L22.2094 28.9589C22.2555 28.6081 22.4835 28.3078 22.809 28.1691L25.2856 27.1142C25.6932 26.9406 26.1665 27.0559 26.4486 27.3976L27.4193 28.5734C27.8361 29.0783 28.6177 29.0531 29.0011 28.5223L32.6832 23.4249C32.7498 23.3328 32.8001 23.23 32.8321 23.1209L36.2621 11.4327C36.3871 11.0068 36.7779 10.7143 37.2217 10.7143H37.6994C38.1486 10.7143 38.5427 10.4148 38.6629 9.98198L40.4208 3.65492C40.685 2.70401 42.0208 2.67006 42.3329 3.60633L43.867 8.20766C44.1583 9.08139 45.3758 9.13012 45.736 8.28246L46.8353 5.69551C47.1046 5.06174 47.9993 5.05177 48.2826 5.67938V5.67938C48.5553 6.28337 49.4056 6.30355 49.7067 5.71318L51.4653 2.26414C51.838 1.53329 52.8837 1.53738 53.2506 2.27112L54.5668 4.90304C54.7734 5.31612 55.236 5.53399 55.686 5.43015L57.8416 4.9328C58.1458 4.86262 58.4653 4.9385 58.7054 5.13795L60.91 6.96912C61.0738 7.10519 61.1899 7.29001 61.2414 7.49666L63.2484 15.5541C63.4833 16.4971 64.7893 16.5848 65.1481 15.6816L66.5046 12.2674C66.7837 11.5648 67.7114 11.4141 68.1986 11.9922L68.8084 12.7159C68.9985 12.9413 69.2783 13.0714 69.5731 13.0714H73.0834C73.4342 13.0714 73.7593 12.8877 73.9402 12.5872L74.8746 11.0348C74.9991 10.8281 75.194 10.6734 75.4235 10.5991L85 7.5" stroke="#40BF6A" stroke-linecap="round"/>
<defs>
<linearGradient id="paint0_linear_217_31805" x1="43" y1="0.5" x2="43" y2="35.5" gradientUnits="userSpaceOnUse">
<stop stop-color="#27AE60" stop-opacity="0.2"/>
<stop offset="1" stop-color="#27AE60" stop-opacity="0"/>
</linearGradient>
</defs>
</svg>
