<svg width="24" height="24" viewBox="0 0 24 24" fill="none" xmlns="http://www.w3.org/2000/svg">
<path d="M19.995 6.68702C20.8914 6.15111 21.5622 5.30726 21.882 4.31302C21.0397 4.81282 20.118 5.1649 19.157 5.35402C17.8246 3.94455 15.7135 3.60154 14.0034 4.51667C12.2933 5.4318 11.4075 7.37851 11.841 9.26902C8.39061 9.09579 5.17598 7.46593 2.99702 4.78502C1.85986 6.74644 2.44097 9.2538 4.32502 10.515C3.64373 10.4931 2.97754 10.3086 2.38202 9.97702C2.38202 9.99502 2.38202 10.013 2.38202 10.031C2.38241 12.0741 3.82239 13.8341 5.82502 14.239C5.19308 14.4109 4.53022 14.4362 3.88702 14.313C4.45022 16.0603 6.06057 17.2573 7.89602 17.293C6.37585 18.4861 4.49849 19.1332 2.56602 19.13C2.22349 19.1305 1.88123 19.1108 1.54102 19.071C3.50341 20.332 5.78739 21.0013 8.12002 20.999C11.3653 21.0213 14.484 19.7419 16.7787 17.447C19.0734 15.1521 20.3526 12.0332 20.33 8.78802C20.33 8.60202 20.3257 8.41702 20.317 8.23302C21.1575 7.62562 21.8828 6.87317 22.459 6.01102C21.676 6.35808 20.8455 6.58594 19.995 6.68702Z" fill="#F2F4F7"/>
</svg>
