<svg width="40" height="40" viewBox="0 0 40 40" fill="none" xmlns="http://www.w3.org/2000/svg">
<rect width="40" height="40" rx="8" fill="#2A4AC8"/>
<path d="M28 7H12C11.4696 7 10.9609 7.21071 10.5858 7.58579C10.2107 7.96086 10 8.46957 10 9V31C10 31.5304 10.2107 32.0391 10.5858 32.4142C10.9609 32.7893 11.4696 33 12 33H28C28.5304 33 29.0391 32.7893 29.4142 32.4142C29.7893 32.0391 30 31.5304 30 31V9C30 8.46957 29.7893 7.96086 29.4142 7.58579C29.0391 7.21071 28.5304 7 28 7ZM28 9V15H12V9H28ZM12 23V17H28V23H12ZM12 31V25H28V31H12Z" fill="#F9FAFB"/>
<path d="M15 13C15.5523 13 16 12.5523 16 12C16 11.4477 15.5523 11 15 11C14.4477 11 14 11.4477 14 12C14 12.5523 14.4477 13 15 13Z" fill="#F9FAFB"/>
<path d="M15 21C15.5523 21 16 20.5523 16 20C16 19.4477 15.5523 19 15 19C14.4477 19 14 19.4477 14 20C14 20.5523 14.4477 21 15 21Z" fill="#F9FAFB"/>
<path d="M15 29C15.5523 29 16 28.5523 16 28C16 27.4477 15.5523 27 15 27C14.4477 27 14 27.4477 14 28C14 28.5523 14.4477 29 15 29Z" fill="#F9FAFB"/>
</svg>
