<svg width="40" height="40" viewBox="0 0 40 40" fill="none" xmlns="http://www.w3.org/2000/svg">
<rect width="40" height="40" rx="8" fill="#2A4AC8"/>
<path d="M20 15.3333L16.5 17.375V21.4583L20 23.5L23.5 21.4583V17.375L20 15.3333ZM21.7698 17.7133L19.9848 18.754L18.215 17.7215L20 16.6808L21.7698 17.7133ZM17.655 18.7423L19.3863 19.7527V21.7943L17.655 20.7852V18.7423ZM20.5413 21.8375V19.776L22.345 18.7237V20.7852L20.5413 21.8375ZM9.5 6L6 8.04167V12.125L9.5 14.1667L13 12.125V8.04167L9.5 6ZM11.2698 8.38L9.48483 9.42067L7.715 8.38817L9.5 7.3475L11.2698 8.38ZM7.155 9.40783L8.88633 10.4182V12.4598L7.155 11.453V9.40783ZM10.0413 12.503V10.4427L11.845 9.39033V11.4518L10.0413 12.503ZM9.5 25.8333L6 27.875V31.9583L9.5 34L13 31.9583V27.875L9.5 25.8333ZM11.2698 28.2133L9.48483 29.254L7.715 28.2215L9.5 27.1808L11.2698 28.2133ZM7.155 29.2423L8.88633 30.2527V32.2943L7.155 31.2863V29.2423ZM10.0413 32.3375V30.276L11.845 29.2237V31.2852L10.0413 32.3375ZM30.5 6L27 8.04167V12.125L30.5 14.1667L34 12.125V8.04167L30.5 6ZM32.2698 8.38L30.4848 9.42067L28.715 8.38817L30.5 7.3475L32.2698 8.38ZM28.155 9.409L29.8863 10.4193V12.461L28.155 11.4518V9.409ZM31.0413 12.5042V10.4427L32.845 9.39033V11.4518L31.0413 12.5042ZM30.5 25.8333L27 27.875V31.9583L30.5 34L34 31.9583V27.875L30.5 25.8333ZM32.2698 28.2133L30.4848 29.254L28.715 28.2215L30.5 27.1808L32.2698 28.2133ZM28.155 29.2423L29.8863 30.2527V32.2943L28.155 31.2852V29.2423ZM31.0413 32.3375V30.276L32.845 29.2237V31.2852L31.0413 32.3375ZM16.5 9.5H23.5V10.6667H16.5V9.5ZM16.5 29.3333H23.5V30.5H16.5V29.3333ZM10.0833 16.5V23.5H8.91667V16.5H10.0833ZM14.5085 16.2993L12.034 13.8248L12.8588 13L15.3333 15.4733L14.5085 16.2993ZM24.6667 15.6752L27.1412 13.2007L27.966 14.0255L25.4915 16.5L24.6667 15.6752ZM15.4827 23.3588L13.0082 25.8333L12.1833 25.0085L14.6578 22.534L15.4827 23.3588ZM25.6922 22.4838L28.1667 24.9583L27.3418 25.7832L24.8673 23.3087L25.6922 22.4838ZM31.0833 16.5V23.5H29.9167V16.5H31.0833Z" fill="#F9FAFB"/>
</svg>
