<svg width="40" height="40" viewBox="0 0 40 40" fill="none" xmlns="http://www.w3.org/2000/svg">
<rect width="40" height="40" rx="8" fill="#2A4AC8"/>
<path d="M6.02975 20.5845C6.3395 28.0316 12.4776 34 20 34C27.5224 34 33.6605 28.0316 33.9702 20.5845C33.9887 20.5376 33.9987 20.4879 34 20.4375C34 20.406 33.9886 20.3789 33.9825 20.35C33.9851 20.2327 34 20.1181 34 20C34 12.2808 27.7192 6 20 6C12.2808 6 6 12.2808 6 20C6 20.1181 6.01487 20.2327 6.0175 20.35C6.01137 20.3789 6 20.406 6 20.4375C6 20.49 6.01313 20.5381 6.02975 20.5845ZM27.8059 25.8993C26.6169 25.4057 25.3813 25.0331 24.1178 24.7871C24.256 23.5158 24.3374 22.1954 24.3628 20.8759H28.7202C28.6406 22.6731 28.3212 24.3698 27.8059 25.8993ZM29.5944 20.875H33.0804C32.9261 23.2573 32.1201 25.5514 30.7502 27.5066C30.0698 27.0278 29.3507 26.6063 28.6004 26.2466C29.1648 24.6112 29.5121 22.7965 29.5944 20.875ZM16.8404 25.5002C17.8855 25.3354 18.9419 25.2517 20 25.25C21.071 25.25 22.1289 25.3392 23.1588 25.5002C22.5515 30.1684 21.225 33.125 20 33.125C18.775 33.125 17.4485 30.1684 16.8404 25.5002ZM18.1695 32.831C15.7624 32.0592 13.7263 29.7939 12.4978 26.72C13.623 26.2494 14.7926 25.8926 15.989 25.6551C16.3906 28.7141 17.1248 31.3794 18.1695 32.831ZM16.7397 15.3704C17.8184 15.5384 18.9083 15.6235 20 15.625C21.0917 15.6235 22.1816 15.5384 23.2603 15.3704C23.4107 16.7879 23.5 18.3349 23.5 20H16.5C16.5 18.3349 16.5893 16.7879 16.7397 15.3704ZM23.4869 20.875C23.466 22.1293 23.3901 23.382 23.2594 24.6296C22.181 24.4616 21.0914 24.3764 20 24.375C18.9083 24.3765 17.8184 24.4616 16.7397 24.6296C16.6087 23.382 16.5327 22.1293 16.5122 20.875H23.4869ZM24.0119 25.6551C25.2404 25.9019 26.412 26.2606 27.5031 26.72C26.2746 29.7939 24.2385 32.0592 21.8314 32.831C22.8752 31.3794 23.6094 28.7141 24.0119 25.6551ZM24.375 20C24.375 18.3935 24.2857 16.766 24.1178 15.2137C25.4128 14.9583 26.6517 14.5837 27.8059 14.1016C28.4044 15.877 28.75 17.8772 28.75 20H24.375ZM24.0119 14.3449C23.6094 11.2859 22.8761 8.61975 21.8305 7.169C24.2376 7.94075 26.2738 10.2061 27.5022 13.28C26.3774 13.751 25.2081 14.1078 24.0119 14.3449ZM23.1596 14.4998C22.1289 14.6607 21.071 14.75 20 14.75C18.929 14.75 17.8711 14.6607 16.8404 14.4998C17.4485 9.83162 18.775 6.875 20 6.875C21.225 6.875 22.5515 9.83162 23.1596 14.4998ZM15.9881 14.3449C14.7918 14.1073 13.6222 13.7505 12.4969 13.28C13.7254 10.2061 15.7615 7.94075 18.1686 7.169C17.1248 8.62063 16.3906 11.2859 15.9881 14.3449ZM15.8822 15.2137C15.7113 16.8034 15.6255 18.4011 15.625 20H11.25C11.25 17.8772 11.5956 15.877 12.1941 14.1007C13.3482 14.5838 14.5872 14.9574 15.8822 15.2137ZM15.6372 20.875C15.6626 22.1945 15.744 23.5149 15.8822 24.7871C14.5872 25.0426 13.3482 25.4171 12.1941 25.8993C11.6788 24.3698 11.3594 22.6731 11.2797 20.875H15.6372ZM11.3988 26.2466C10.6489 26.6067 9.93012 27.0281 9.24975 27.5066C7.87983 25.5515 7.07375 23.2573 6.91962 20.875H10.4056C10.4879 22.7965 10.8352 24.6112 11.3988 26.2466ZM9.77388 28.2075C10.3863 27.7762 11.032 27.3944 11.705 27.0656C12.5835 29.24 13.8479 31.0451 15.3678 32.2657C13.1751 31.4351 11.244 30.0341 9.77388 28.2075ZM24.6322 32.2649C26.153 31.0451 27.4165 29.2391 28.295 27.0647C28.9862 27.4007 29.6268 27.7875 30.2261 28.2066C28.7565 30.0338 26.8253 31.4349 24.6322 32.2649ZM29.625 20C29.625 17.7539 29.2505 15.6364 28.6012 13.7534C29.3713 13.3841 30.087 12.9598 30.7511 12.4934C32.2966 14.6914 33.1256 17.313 33.125 20H29.625ZM30.227 11.7925C29.6276 12.2116 28.9871 12.5984 28.2959 12.9344C27.4174 10.76 26.153 8.954 24.6331 7.73425C26.8255 8.56533 28.7566 9.96624 30.227 11.7925ZM15.3678 7.73513C13.847 8.95487 12.5835 10.7609 11.705 12.9353C11.0321 12.606 10.3863 12.2239 9.77388 11.7925C11.2438 9.96588 13.175 8.56513 15.3678 7.73513ZM9.24975 12.4934C9.93 12.9721 10.6488 13.3935 11.3988 13.7534C10.7144 15.7646 10.3685 17.8755 10.375 20H6.875C6.875 17.2087 7.75787 14.6231 9.24975 12.4934Z" fill="#F9FAFB"/>
</svg>
